<svg width="53" height="44" viewBox="0 0 53 44" fill="none" xmlns="http://www.w3.org/2000/svg">
<path d="M47.719 10.5433L44.2104 19.9123H27.3665L23.8579 10.5433H47.719Z" fill="#00AF7E"/>
<path d="M45.4489 43.338L36.139 43.3336L27.3665 19.9122L23.8579 10.5432L20.3492 19.9122L11.5755 43.338H2.26123L11.2305 19.9122L14.817 10.5432L18.8523 0H28.8614L32.8987 10.5432L36.4852 19.9122L45.4489 43.338Z" fill="grey"/>
<path d="M23.8579 10.5433L20.3493 19.9123H3.50861L0 10.5433H23.8579Z" fill="#00AF7E"/>
<path d="M29.1206 24.5967L32.6292 33.9658H3.50861L0 24.5967H29.1206Z" fill="#00AF7E"/>
<path d="M47.7191 24.5967L44.2105 33.9658H41.8653L38.2788 24.5967H47.7191Z" fill="#00AF7E"/>

</svg>
