<?xml version="1.0" encoding="UTF-8" standalone="no"?>
<svg
   xmlns:dc="http://purl.org/dc/elements/1.1/"
   xmlns:cc="http://creativecommons.org/ns#"
   xmlns:rdf="http://www.w3.org/1999/02/22-rdf-syntax-ns#"
   xmlns:svg="http://www.w3.org/2000/svg"
   xmlns="http://www.w3.org/2000/svg"
   xmlns:sodipodi="http://sodipodi.sourceforge.net/DTD/sodipodi-0.dtd"
   xmlns:inkscape="http://www.inkscape.org/namespaces/inkscape"
   width="62.932026mm"
   height="62.962551mm"
   viewBox="0 0 62.932028 62.962551"
   version="1.1"
   id="svg8"
   inkscape:version="0.92.2 (5c3e80d, 2017-08-06)"
   sodipodi:docname="Corn.svg">
  <defs
     id="defs2" />
  <sodipodi:namedview
     id="base"
     pagecolor="#ffffff"
     bordercolor="#666666"
     borderopacity="1.0"
     inkscape:pageopacity="0.0"
     inkscape:pageshadow="2"
     inkscape:zoom="0.7"
     inkscape:cx="-25.356391"
     inkscape:cy="182.52202"
     inkscape:document-units="mm"
     inkscape:current-layer="layer1"
     showgrid="false"
     fit-margin-top="0"
     fit-margin-left="0"
     fit-margin-right="0"
     fit-margin-bottom="0"
     inkscape:window-width="1920"
     inkscape:window-height="1001"
     inkscape:window-x="-9"
     inkscape:window-y="-9"
     inkscape:window-maximized="1" />
  <metadata
     id="metadata5">
    <rdf:RDF>
      <cc:Work
         rdf:about="">
        <dc:format>image/svg+xml</dc:format>
        <dc:type
           rdf:resource="http://purl.org/dc/dcmitype/StillImage" />
        <dc:title></dc:title>
      </cc:Work>
    </rdf:RDF>
  </metadata>
  <g
     inkscape:label="Layer 1"
     inkscape:groupmode="layer"
     id="layer1"
     transform="translate(-230.80091,-79.5162)">
    <path
       style="fill:#72b31a;stroke-width:0.26458332"
       d="m 233.83805,142.11649 c -1.04613,-0.46106 -2.23546,-1.6712 -2.68287,-2.72981 -0.29574,-0.69974 -0.3588,-5.74255 -0.35403,-28.31041 0.006,-26.130615 0.0294,-27.510228 0.49427,-28.517361 0.59114,-1.280842 1.42875,-2.086927 2.73618,-2.633206 0.86321,-0.360671 4.24813,-0.409503 28.38609,-0.409503 24.71655,0 27.48911,0.04198 28.25277,0.427824 1.19714,0.604856 2.00909,1.400957 2.59587,2.545207 0.49148,0.958401 0.50486,1.841621 0.43728,28.862279 l -0.0697,27.87362 -0.75713,1.09248 c -0.4306,0.62131 -1.23688,1.32472 -1.86948,1.63096 -1.0974,0.53124 -1.48312,0.53833 -28.7439,0.52811 -22.31572,-0.008 -27.78427,-0.0777 -28.42532,-0.36019 z m 23.82306,-9.3005 c 1.85709,-0.48359 3.30797,-1.28719 4.70787,-2.60757 l 1.01427,-0.95666 1.20189,1.05795 c 0.66104,0.58187 1.87149,1.38692 2.6899,1.78899 1.35124,0.66385 1.75553,0.73105 4.39843,0.73105 2.58909,0 3.07108,-0.0763 4.36562,-0.69059 2.24944,-1.06748 3.81143,-2.62145 4.94939,-4.92396 0.91165,-1.84459 0.99291,-2.19327 0.9981,-4.28219 0.003,-1.25076 -0.14366,-2.7648 -0.32613,-3.36454 -0.18247,-0.59975 -1.53112,-3.07233 -2.997,-5.49464 l -2.66523,-4.4042 1.25144,-1.38453 c 0.68829,-0.76149 1.62023,-2.15843 2.07096,-3.10431 0.74737,-1.56839 0.81951,-1.95322 0.81951,-4.37119 0,-2.460644 -0.0623,-2.778004 -0.86627,-4.411054 -0.98527,-2.001373 -3.02058,-4.039238 -4.9311,-4.937286 -0.66585,-0.312989 -2.02782,-0.7092 -3.02658,-0.88047 -1.54586,-0.265085 -2.08719,-0.244736 -3.63974,0.136823 -1.00309,0.246522 -2.37835,0.791855 -3.05611,1.211853 l -1.23231,0.763631 -0.74583,-0.778475 c -1.04727,-1.09312 -2.89226,-2.202807 -4.55783,-2.741353 -2.23352,-0.722186 -5.49995,-0.473203 -7.77813,0.592885 -2.19568,1.027483 -4.07522,2.856884 -5.10556,4.969358 l -0.77147,1.581734 -0.16583,13.229164 c -0.0912,7.27604 -0.0746,13.89703 0.0369,14.71331 0.83808,6.13592 7.145,10.17487 13.36086,8.55627 z m -5.05756,-5.92737 c -1.27123,-0.64929 -2.07015,-1.64549 -2.46758,-3.07691 -0.31819,-1.14603 -0.36228,-15.45914 -0.0688,-22.33509 0.15871,-3.718384 0.23266,-4.181834 0.79263,-4.966934 1.98364,-2.781116 6.85742,-2.471927 8.41166,0.53363 0.33041,0.63895 0.42099,1.52247 0.39193,3.822784 -0.0233,1.84724 0.0636,2.99177 0.2273,2.99177 0.14582,0 1.92383,-1.60005 3.95115,-3.55568 2.89895,-2.796434 3.91761,-3.618044 4.77056,-3.847714 2.82901,-0.76177 5.5383,1.13294 5.77953,4.041854 0.16404,1.97806 -0.31142,2.78201 -3.32959,5.62996 l -2.5442,2.40071 2.87709,4.74304 c 1.5824,2.60867 3.2894,5.42912 3.79334,6.26766 1.17089,1.94833 1.35654,3.40949 0.63925,5.03105 -0.75446,1.70558 -2.23304,2.64805 -4.15436,2.64805 -2.41068,0 -2.96845,-0.5529 -6.59404,-6.53642 -1.73494,-2.86329 -3.2331,-5.25458 -3.32924,-5.314 -0.0961,-0.0594 -0.61139,0.18866 -1.14502,0.55127 l -0.97024,0.6593 v 3.72475 c 0,3.26674 -0.0668,3.84361 -0.54327,4.69136 -1.20408,2.14237 -4.258,3.0346 -6.48811,1.89556 z"
       id="path99"
       inkscape:connector-curvature="0" />
  </g>
</svg>
