<svg xmlns="http://www.w3.org/2000/svg" viewBox="0 0 275.8 258.3"><title>oschadbank</title><path d="M276.1,68.7v2.6c-.2.1-.2.2-.3.4a23.7,23.7,0,0,1-9,15.8c-.9.6-1,1.1-.5,2.1,2.2,4.2,1.5,8.1-1.9,11.4a15.8,15.8,0,0,1-4.8,3.3,1.8,1.8,0,0,0-1.3,2q.1,60.9.1,122A28.1,28.1,0,0,1,255,242c-5.5,10-14,15.4-25.3,16.4H28.8A30.8,30.8,0,0,1,1.3,235.7c-.4-1.4-.3-2.9-1-4.3V27.4c.4-.2.3-.5.3-.8a30.1,30.1,0,0,1,1.8-6.7C7.5,8.1,16.4,1.6,29.2.4H229.9a30.6,30.6,0,0,1,27.3,22.1c1.2,4.2,1.2,8.4,1.2,12.6-.1,8.1,0,16.3-.1,24.4,0,1,.1,1.4,1.2.9a17.3,17.3,0,0,1,4.9-1.5c6.3-1.4,9.5.7,11.1,6.8A9.4,9.4,0,0,0,276.1,68.7ZM136.2,231.6l-.2-.3-1.3-1.1a41.5,41.5,0,0,1-9.6-11.7c-5.7-10.7-6.9-22.1-4.9-33.8,3.1-18.2,12.7-32.4,28-42.5,9.1-5.9,19.1-9.1,30.1-7.7,7.2.9,13.4,3.8,18.1,9.6,9,10.8,11.3,23.2,8.5,36.7s-9.8,25.1-19.9,34.7A96.7,96.7,0,0,1,166.6,229c-.7.5-1.3.8-.8,1.9s1.3.7,2,.5a62.7,62.7,0,0,0,7.4-3.5c8.5-4.8,16.8-10,23.7-17,13.9-14.1,22.7-31,25.2-50.8a53.4,53.4,0,0,0-2.3-25.1c-4.5-12.7-13.1-20.9-26.5-23.7-8.6-1.8-17-.6-25.2,2.2-12.4,4.3-22.6,11.7-31.4,21.2-6.8,7.3-11.8,15.7-16,24.7-5.5,11.8-9.3,24.1-8.9,37.3a41.9,41.9,0,0,0,8.8,25.2l2.3,2.8H109.5a1.9,1.9,0,0,1-1.9-1.2,60.8,60.8,0,0,1-4.9-39.8c2.3-11.2,7-21.4,12.9-31,4.7-7.7,10.5-14.5,16.2-21.4a79.8,79.8,0,0,1,19.7-17.4c11.2-7,23.1-11.4,36.5-11.2a37,37,0,0,1,18.7,5.1l6.4,3.8a23.7,23.7,0,0,0,20.4,2.4,6.7,6.7,0,0,0,5.1-6.6,10.3,10.3,0,0,0-.3-3.9c-.2-.8.1-.9.8-1,3-.1,6-.2,8.9-.5a24.5,24.5,0,0,0,9.6-2.2c4.9-2.4,6.1-6.9,3-11.3-.5-.8-.4-1.1.3-1.7a29,29,0,0,0,9.3-12.3,11.1,11.1,0,0,0,.1-8.6,3.5,3.5,0,0,0-3.5-2.3,11.6,11.6,0,0,0-4.1.9,77.1,77.1,0,0,0-9.6,4.6c-2.4,1.2-2.4,1.2-3.8-.9s-3-3.7-5.6-3.7a13.4,13.4,0,0,0-5.1,1.1,77,77,0,0,0-10.2,5.5,8.7,8.7,0,0,1-3.1,1.4c.1-.4.1-.6.2-.9a5.3,5.3,0,0,0-4.5-7,15.1,15.1,0,0,0-3-.1,33.4,33.4,0,0,0-12.3,3.9c-7.8,4.1-14.2,9.8-18.3,17.7-.8,1.4-.7,1.5.9,1.4a115.2,115.2,0,0,1,17.6.8,85.5,85.5,0,0,0,16,1.1,66.9,66.9,0,0,0,22.9-5.1,58.8,58.8,0,0,0,8.7-5.2c.8-.6,2-1.4,2.8-.3s-.1,1.9-.7,2.6a23.4,23.4,0,0,1-5.2,4.2c-11.3,7.5-23.8,9.4-37,8.2A180.5,180.5,0,0,0,189,92.6c-10.2.4-20.2,2.1-29.5,6.6-.2.1-.3.2-.5,0h0l2.7-3.8a241.9,241.9,0,0,0,22.4-42.4A145.6,145.6,0,0,0,191.7,31c.4-1.6.4-1.6-1.3-1.6H118a2.6,2.6,0,0,0-1.5.2c.3.6.8.8,1.2,1.2a44.8,44.8,0,0,1,11,13.9,51.5,51.5,0,0,1,4.5,30.9c-2.8,18-11.9,32.2-27.1,42.3-9.3,6.2-19.5,9.7-30.9,8.4a28.2,28.2,0,0,1-18-8.9c-7-7.4-9.7-16.6-9.8-26.6a52.2,52.2,0,0,1,3.5-18.3c5-13.7,14.1-24.2,25.5-33A120.1,120.1,0,0,1,87,32.6c.6-.4,1-.6.7-1.4s-.8-1.3-1.9-.9a60.7,60.7,0,0,0-8.9,4.3c-8,4.6-15.8,9.5-22.3,16.1a90.2,90.2,0,0,0-25,47.8,54.2,54.2,0,0,0,2.2,28.8c3.2,9.2,9,16.3,17.9,20.4s17.5,4.4,26.6,2.4c17.3-3.8,30.9-13.6,41.8-27.2A107,107,0,0,0,132.3,99c4.4-9.9,7.6-20.1,7.9-31.1s-3.3-23.3-11.7-32.5c-.2-.2-.6-.4-.4-.8h12.2a2.2,2.2,0,0,1,2.2,1.3c8.5,15.2,10.2,31.3,5.7,48.1-4.9,18.4-15.1,33.8-27.7,47.8-5,5.5-10.2,10.8-14.9,16.6-19.9,24.5-35,51.6-44.2,81.9-.4,1.4-.4,1.4,1.1,1.4h73.7ZM9.4,129.4v93.4c0,9.3,4,16.6,11.6,21.9,4.8,3.4,10.2,4.7,16.1,4.7H218.9a15.8,15.8,0,0,0,8-1.9c6.1-3.4,12-7.1,16.8-12.2a20,20,0,0,0,5.7-14.2c-.2-37.4-.1-74.8-.1-112.2v-1c.1-.7-.1-.9-.8-.9l-2.6.2c-1.3-.1-1.5.4-1.5,1.6V222.5a21.5,21.5,0,0,1-22,21.9H35.8a21.5,21.5,0,0,1-21.4-21.5V35.8A21.2,21.2,0,0,1,35.7,14.4H222.3a21.9,21.9,0,0,1,22.1,22.1V57.7c0,1.6,0,1.6,1.7,1.9a8,8,0,0,1,2.1.5c1,.4,1.1,0,1.1-.9V35.1a27.9,27.9,0,0,0-.7-5.8C246,18.5,236.1,9.4,222.3,9.4H36.9a28,28,0,0,0-5,.3A26.6,26.6,0,0,0,9.4,36.3Z" transform="translate(-0.3 -0.3)" style="fill:#3a7c4a"/><path d="M229.7,258.4c11.3-1,19.8-6.4,25.3-16.4a28.1,28.1,0,0,0,3.4-13.7q0-61.1-.1-122a1.8,1.8,0,0,1,1.3-2,15.8,15.8,0,0,0,4.8-3.3c3.4-3.3,4.1-7.2,1.9-11.4-.5-1-.4-1.5.5-2.1a23.7,23.7,0,0,0,9-15.8c.1-.2.1-.3.3-.4V257.4c0,.9-.2,1.1-1.1,1.1H229.7Z" transform="translate(-0.3 -0.3)" style="fill:#fdfefd"/><path d="M276.1,68.7a9.4,9.4,0,0,1-.6-2.9c-1.6-6.1-4.8-8.2-11.1-6.8a17.3,17.3,0,0,0-4.9,1.5c-1.1.5-1.2.1-1.2-.9.1-8.1,0-16.3.1-24.4,0-4.2,0-8.4-1.2-12.6A30.6,30.6,0,0,0,229.9.5h45.2c.8,0,1,.1,1,.9Z" transform="translate(-0.3 -0.3)" style="fill:#fdfefd"/><path d="M29.2.4C16.4,1.6,7.5,8.1,2.4,19.9A30.1,30.1,0,0,0,.6,26.6c0,.3.1.6-.3.8V1.1C.3.4.4.3,1.2.3h28Z" transform="translate(-0.3 -0.3)" style="fill:#fdfefd"/><path d="M.3,231.4c.7,1.4.6,2.9,1,4.3a30.8,30.8,0,0,0,27.5,22.6H1.2c-.7,0-.9-.1-.9-.9Z" transform="translate(-0.3 -0.3)" style="fill:#fdfefd"/><path d="M28.9,258.5h0Z" transform="translate(-0.3 -0.3)" style="fill:#dabf46"/><path d="M29.2.4h0Z" transform="translate(-0.3 -0.3)" style="fill:#dabf46"/><path d="M136.2,231.6H62.5c-1.5,0-1.5,0-1.1-1.4,9.2-30.3,24.3-57.4,44.2-81.9,4.7-5.8,9.9-11.1,14.9-16.6,12.6-14,22.8-29.4,27.7-47.8,4.5-16.8,2.8-32.9-5.7-48.1a2.2,2.2,0,0,0-2.2-1.3H128.1c-.2.4.2.6.4.8,8.4,9.2,12.1,20.2,11.7,32.5s-3.5,21.2-7.9,31.1a107,107,0,0,1-14.2,23.9c-10.9,13.6-24.5,23.4-41.8,27.2-9.1,2-18,1.6-26.6-2.4S35,136.5,31.8,127.3a54.2,54.2,0,0,1-2.2-28.8,90.2,90.2,0,0,1,25-47.8c6.5-6.6,14.3-11.5,22.3-16.1a60.7,60.7,0,0,1,8.9-4.3c1.1-.4,1.6-.2,1.9.9s-.1,1-.7,1.4a120.1,120.1,0,0,0-10.6,6.9C65,48.3,55.9,58.8,50.9,72.5a52.2,52.2,0,0,0-3.5,18.3c.1,10,2.8,19.2,9.8,26.6a28.2,28.2,0,0,0,18,8.9c11.4,1.3,21.6-2.2,30.9-8.4,15.2-10.1,24.3-24.3,27.1-42.3a51.5,51.5,0,0,0-4.5-30.9,44.8,44.8,0,0,0-11-13.9c-.4-.4-.9-.6-1.2-1.2a2.6,2.6,0,0,1,1.5-.2h72.4c1.7,0,1.7,0,1.3,1.6a145.6,145.6,0,0,1-7.6,21.9,241.9,241.9,0,0,1-22.4,42.4L159,99.1h0c.2.2.3.1.5,0,9.3-4.5,19.3-6.2,29.5-6.6a180.5,180.5,0,0,1,24.4,1.2c13.2,1.2,25.7-.7,37-8.2a23.4,23.4,0,0,0,5.2-4.2c.6-.7,1.5-1.7.7-2.6s-2-.3-2.8.3a58.8,58.8,0,0,1-8.7,5.2,66.9,66.9,0,0,1-22.9,5.1,85.5,85.5,0,0,1-16-1.1,115.2,115.2,0,0,0-17.6-.8c-1.6.1-1.7,0-.9-1.4,4.1-7.9,10.5-13.6,18.3-17.7A33.4,33.4,0,0,1,218,64.5a15.1,15.1,0,0,1,3,.1,5.3,5.3,0,0,1,4.5,7c-.1.3-.1.5-.2.9a8.7,8.7,0,0,0,3.1-1.4,77,77,0,0,1,10.2-5.5,13.4,13.4,0,0,1,5.1-1.1c2.6,0,4.2,1.7,5.6,3.7s1.4,2.1,3.8.9a77.1,77.1,0,0,1,9.6-4.6,11.6,11.6,0,0,1,4.1-.9,3.5,3.5,0,0,1,3.5,2.3,11.1,11.1,0,0,1-.1,8.6,29,29,0,0,1-9.3,12.3c-.7.6-.8.9-.3,1.7,3.1,4.4,1.9,8.9-3,11.3A24.5,24.5,0,0,1,248,102c-2.9.3-5.9.4-8.9.5-.7.1-1,.2-.8,1a10.3,10.3,0,0,1,.3,3.9,6.7,6.7,0,0,1-5.1,6.6,23.7,23.7,0,0,1-20.4-2.4l-6.4-3.8a37,37,0,0,0-18.7-5.1c-13.4-.2-25.3,4.2-36.5,11.2a79.8,79.8,0,0,0-19.7,17.4c-5.7,6.9-11.5,13.7-16.2,21.4-5.9,9.6-10.6,19.8-12.9,31a60.8,60.8,0,0,0,4.9,39.8,1.9,1.9,0,0,0,1.9,1.2h15.4l-2.3-2.8a41.9,41.9,0,0,1-8.8-25.2c-.4-13.2,3.4-25.5,8.9-37.3,4.2-9,9.2-17.4,16-24.7,8.8-9.5,19-16.9,31.4-21.2,8.2-2.8,16.6-4,25.2-2.2,13.4,2.8,22,11,26.5,23.7a53.4,53.4,0,0,1,2.3,25.1c-2.5,19.8-11.3,36.7-25.2,50.8-6.9,7-15.2,12.2-23.7,17a62.7,62.7,0,0,1-7.4,3.5c-.7.2-1.4.7-2-.5s.1-1.4.8-1.9A96.7,96.7,0,0,0,185,215.5c10.1-9.6,17.1-21,19.9-34.7s.5-25.9-8.5-36.7c-4.7-5.8-10.9-8.7-18.1-9.6-11-1.4-21,1.8-30.1,7.7-15.3,10.1-24.9,24.3-28,42.5-2,11.7-.8,23.1,4.9,33.8a41.5,41.5,0,0,0,9.6,11.7l1.3,1.1Z" transform="translate(-0.3 -0.3)" style="fill:#dabf46"/><path d="M9.4,129.4V36.3A26.6,26.6,0,0,1,31.9,9.7a28,28,0,0,1,5-.3H222.3c13.8,0,23.7,9.1,26.3,19.9a27.9,27.9,0,0,1,.7,5.8V59.2c0,.9-.1,1.3-1.1.9a8,8,0,0,0-2.1-.5c-1.7-.3-1.7-.3-1.7-1.9V36.5a21.9,21.9,0,0,0-22.1-22.1H35.7A21.2,21.2,0,0,0,14.4,35.8V222.9a21.5,21.5,0,0,0,21.4,21.5H222.4a21.5,21.5,0,0,0,22-21.9V108.8c0-1.2.2-1.7,1.5-1.6l2.6-.2c.7,0,.9.2.8.9v1c0,37.4-.1,74.8.1,112.2a20,20,0,0,1-5.7,14.2c-4.8,5.1-10.7,8.8-16.8,12.2a15.8,15.8,0,0,1-8,1.9H37.1c-5.9,0-11.3-1.3-16.1-4.7-7.6-5.3-11.6-12.6-11.6-21.9Z" transform="translate(-0.3 -0.3)" style="fill:#fdfefd"/></svg>