<?xml version="1.0" encoding="utf-8"?>
<!-- Generator: Adobe Illustrator 22.1.0, SVG Export Plug-In . SVG Version: 6.00 Build 0)  -->
<svg version="1.1" id="Слой_1" xmlns="http://www.w3.org/2000/svg" xmlns:xlink="http://www.w3.org/1999/xlink" x="0px" y="0px"
	 viewBox="0 0 360.2 357.1" style="enable-background:new 0 0 360.2 357.1;" xml:space="preserve">
<style type="text/css">
	.privat0{fill:#FFFFFF;stroke:#000000;stroke-miterlimit:10;}
	.privat1{fill:#5DB02E;}
</style>
<title>privatbank</title>
<rect x="0.8" y="1.8" class="privat0" width="359.4" height="355.3"/>
<path d="M70.7,217.3c22,0,44,0.1,66-0.1c3.4,0,4.4,0.8,4.4,4.3c-0.1,43.7-0.1,87.4,0,131c0,3.3-0.8,4.5-4.4,4.5
	c-44.1-0.1-88.3-0.1-132.4,0.2c-3.7,0-4.2-1.2-4.2-4.5c0.1-43.7,0-87.3-0.1-131c0-3.9,1.2-4.5,4.7-4.5
	C26.7,217.4,48.7,217.3,70.7,217.3z"/>
<path class="privat1" d="M360.2,5.7c0-4.6-1.3-5.7-5.8-5.7c-58,0.2-116,0.1-174,0.1H7c-6.5,0-6.5,0-6.5,6.4
	C0.4,57.8,0.3,109.1,0.4,160.4c0,13.3,0.1,13.2,13.6,13.3c22.1,0.1,44.3-0.7,66.2,3.5c23.5,4.7,45.4,13,63.6,29.3
	c26.7,23.9,36.7,55.4,40.2,89.7c1.9,18.1,1,36.3,1.1,54.4c0.1,6.4,0,6.4,6.6,6.4c54.5,0,109-0.1,163.5,0.1c3.9,0,5-1,5-5
	C360.1,236.7,360.1,121.2,360.2,5.7z M285.5,278c0,4.2-1.3,5.3-5.3,5.1c-6.4-0.3-12.7-0.2-19,0.1c-3.7,0.1-4.6-1.6-5-4.6
	c-2.9-25.6-10.4-50.6-22.1-73.6c-20.9-40.7-52.9-69.3-95-86.6c-18.8-7.8-38.5-12.9-58.7-15.3c-3.8-0.4-5.9-1.7-5.6-6.2
	c0.4-6,0.5-12,0.1-18c-0.2-4,1.2-4.9,5.1-4.9h200c4.3-0.1,5.6,1,5.6,5.5C285.4,145.6,285.4,211.8,285.5,278z"/>
</svg>
