<?xml version="1.0" encoding="utf-8"?>
<!-- Generator: Adobe Illustrator 22.1.0, SVG Export Plug-In . SVG Version: 6.00 Build 0)  -->
<svg version="1.1" id="Layer_111" xmlns="http://www.w3.org/2000/svg" xmlns:xlink="http://www.w3.org/1999/xlink" x="0px" y="0px"
	 viewBox="0 0 96.2 96" style="enable-background:new 0 0 96.2 96;" xml:space="preserve">
<style type="text/css">
	.stpumb01{fill:#D13239;}
	.stpumb02{fill:#FFFFFF;}
</style>
<g>
	<g>
		<path class="stpumb01" d="M48.2,0c26.4,0,48,21.6,48,48c0,26.6-21.6,48-48,48C21.7,96,0,74.5,0,48C0,21.6,21.7,0,48.2,0"/>
		<path class="stpumb02" d="M84.7,31.2h0.5c-0.2,1.4-0.8,2.4-1.7,3c-1.1,0.6-2.3,1-4.2,1h-1.7c-6.2-0.4-7.5,6.2-6.8,11
			c0.5,3,1.6,6.2,3.4,8.4c1.6,1.7,4,2.8,6,1.1c1.7-1.4,2.2-4.6,2.2-6.5c0-3.3-1.2-8.4-5.3-8.4c-1.2,0-2.3,0.5-3.2,1.7
			c-0.7,0.9-1,2.6-1,4.3h-0.8c-0.5-4,1.4-7.3,5.6-7.4c5,0,8,4,8,9s-3.1,9.7-8.2,9.7c-2.7,0-4.8-1-6.4-3c-1.6-1.9-2.3-5-2.3-9
			c0-5,0.8-7.9,2.3-10.3c1.6-2.3,3.7-3.4,6.7-3.4h2.5c1.6,0.2,2.7,0,3.3-0.1C84.1,32,84.6,31.7,84.7,31.2"/>
		<path class="stpumb02" d="M49.6,39.6l6.1,13.5l5.6-12.4l0.5-1.1h4.6v0.6H66c-0.6,0-1.3,0.7-1.3,1.4v10.3V56c0,0.8,0.7,1.4,1.3,1.4h0.4
			v0.5h-3.1H60v-0.5h0.5c0.6,0,1.3-0.6,1.3-1.4v-4.1v-9.2L55,57.9h-0.4l-6.7-15.5v13.5c0,0.8,0.6,1.4,1.2,1.4h0.5v0.5h-3.1h-1.6
			v-0.5h0.5c0.7,0,1.3-0.6,1.3-1.4V41.6c0-0.7-0.4-1.4-1.4-1.4c-0.8,0-1.7,0.8-2.2,1.9l-6.4,14.2c-0.6,1.2-1.4,1.6-2.5,1.6h-1.5
			L32.4,56c0.7,0.5,1.2,0.8,1.4,0.9c0.8,0.4,1.4-0.1,1.6-0.7l0.8-1.8l-5.8-12c-0.7-1.3-1.2-1.9-2.1-2.1v-0.6h3.3h2.5v0.6h-0.5
			c-0.5,0-0.7,0.7-0.3,1.4l4.4,9.4l4.1-9.1c0.5-0.9,0.1-1.6-0.6-1.7v-0.7H49.6z"/>
		<path class="stpumb02" d="M23,51.9V41.6v-0.7h-8.2v0.7v10.3V56c0,0.8,0.6,1.4,1.2,1.4h0.5v0.5h-3.1h-3.3v-0.5h0.5
			c0.7,0,1.3-0.6,1.3-1.4v-4.1V41.6c0-0.8-0.6-1.4-1.3-1.4h-0.5v-0.6h3.3h0.5h2.7h4.8h2.4h0.9h3.1v0.6h-0.5c-0.7,0-1.3,0.7-1.3,1.4
			v10.3V56c0,0.8,0.6,1.4,1.3,1.4h0.5v0.5h-3.1h-3.3v-0.5h0.5c0.6,0,1.2-0.6,1.2-1.4v-4.1H23z"/>
	</g>
</g>
</svg>
