<svg id="fe0874a2-122f-4139-ab0e-5ea99689b31e" data-name="Слой 1" xmlns="http://www.w3.org/2000/svg" viewBox="0 0 225 225"><title>Ukrsibbank</title><path d="M0,225V0H225V225ZM42.2,120.3c8.1-6.1,15.1-13.5,23.4-19.5,2.7-1.9,3.7-1.9,4.7,1.5,1.8,6.2,4,12.2,6.4,19.3,1.4-9.3,4.5-17.1,7.2-25,.7-1.9,1.6-3.3,3.7-3.6,10-1.1,19.9-2.2,29.7.7a5.1,5.1,0,0,0,5.8-1.8C112.3,87,101.6,83,89.8,81l5.3-11.1a17.6,17.6,0,0,0-10,3.4C78.2,78.2,71,80.6,62.4,80c-6.7-.5-13.4.9-20.1,3.3,6.7,2.6,14.2,1.6,20,6.7-7.2,7.9-13.6,15.9-18.4,25-.9,1.6-3.2,3.1-1.7,5.5l-.8-.6-.2.4ZM181.9,99.2c.9-1.9,1.3-2.6,1.6-3.4,3.7-13,6.4-26.1,6.5-39.7.1-3,.5-5.1,3.3-7s5.6-4.6,6.3-8.4c-2.1-1.1-3.8-.4-5.6-.3-5.6.3-11.2,2.7-17-.6-9.4-5.3-19.9-8.2-30.4-10.8-6.9-1.7-11.4-1.9-15.1-.5,9.7,5.3,20.1,9.6,28,18.1-14.9,3.2-29.5,7.1-42.9,14.7l42-4.5c-3.3,7.6-8.7,13-13.1,19.3L175.2,61C181.4,72.7,180.8,85.3,181.9,99.2ZM62.3,154c-4.4.7-8.3,1.2-12.2,2s-4.5-.3-5.8-3.1c-3-6.6-4.9-13.6-6.8-21.3-2.2,9.4-.6,18.2-1.6,27l-11.5,4.2c3.5,2.2,6,4.1,8.8,5.4,5.5,2.6,10.1,5.8,12.7,11.7,1.7,3.9,4.7,7.2,8,10.1,1-4.2-1.1-8.2.3-12.2,5.1.2,9.8,2.6,15.5,1.7-4.2-3.2-7.7-5.9-11.3-8.5s-3.1-3.6-1.5-6.4S60.3,157.9,62.3,154Zm58.3,33.3c-3.2-6.2-.7-9.1,3.9-11.5a7.8,7.8,0,0,0,4.4-5.9c-4.2.9-6.9,4.2-10.8,4.8l-1.2-7.6c-4.3,4.3-6.4,10.1-11.3,12.4s-10.7,2.5-16.3,3.7l9.7,3.5c-2.1,3-5.3,4.5-8.4,7.3C101.7,194.4,109.2,184.6,120.6,187.3Z" style="fill:#019564"/><path d="M181.9,99.2c-1.1-13.9-.5-26.5-6.7-38.2L145.5,76.1c4.4-6.3,9.8-11.7,13.1-19.3l-42,4.5c13.4-7.6,28-11.5,42.9-14.7-7.9-8.5-18.3-12.8-28-18.1,3.7-1.4,8.2-1.2,15.1.5,10.5,2.6,21,5.5,30.4,10.8,5.8,3.3,11.4.9,17,.6,1.8-.1,3.5-.8,5.6.3-.7,3.8-3.4,6.5-6.3,8.4s-3.2,4-3.3,7c-.1,13.6-2.8,26.7-6.5,39.7C183.2,96.6,182.8,97.3,181.9,99.2Z" style="fill:#f6fafa"/><path d="M42.2,120.5c-1.5-2.4.8-3.9,1.7-5.5,4.8-9.1,11.2-17.1,18.4-25-5.8-5.1-13.3-4.1-20-6.7C49,80.9,55.7,79.5,62.4,80c8.6.6,15.8-1.8,22.7-6.7a17.6,17.6,0,0,1,10-3.4L89.8,81c11.8,2,22.5,6,33.3,10.9a5.1,5.1,0,0,1-5.8,1.8c-9.8-2.9-19.7-1.8-29.7-.7-2.1.3-3,1.7-3.7,3.6-2.7,7.9-5.8,15.7-7.2,25-2.4-7.1-4.6-13.1-6.4-19.3-1-3.4-2-3.4-4.7-1.5-8.3,6-15.3,13.4-23.4,19.5Z" style="fill:#f6fafa"/><path d="M62.3,154c-2,3.9-3.6,7.3-5.4,10.6s-.8,4.6,1.5,6.4,7.1,5.3,11.3,8.5c-5.7.9-10.4-1.5-15.5-1.7-1.4,4,.7,8-.3,12.2-3.3-2.9-6.3-6.2-8-10.1-2.6-5.9-7.2-9.1-12.7-11.7-2.8-1.3-5.3-3.2-8.8-5.4l11.5-4.2c1-8.8-.6-17.6,1.6-27,1.9,7.7,3.8,14.7,6.8,21.3,1.3,2.8,2.9,3.7,5.8,3.1S57.9,154.7,62.3,154Z" style="fill:#f6fafa"/><path d="M120.6,187.3c-11.4-2.7-18.9,7.1-30,6.7,3.1-2.8,6.3-4.3,8.4-7.3l-9.7-3.5c5.6-1.2,11.5-1.4,16.3-3.7s7-8.1,11.3-12.4l1.2,7.6c3.9-.6,6.6-3.9,10.8-4.8a7.8,7.8,0,0,1-4.4,5.9C119.9,178.2,117.4,181.1,120.6,187.3Z" style="fill:#f6fafa"/><path d="M42.2,120.3h-1l.2-.4.8.6Z" style="fill:#f6fafa"/></svg>