<svg width="90" height="90" viewBox="0 0 90 90" fill="none" xmlns="http://www.w3.org/2000/svg">
<circle cx="45" cy="45" r="43" stroke="#F55151" stroke-width="4"/>
<path d="M48.4286 27.8573H34.7143C33.805 27.8573 32.9329 28.2185 32.2899 28.8615C31.6469 29.5045 31.2857 30.3766 31.2857 31.2859V58.7144C31.2857 59.6238 31.6469 60.4958 32.2899 61.1388C32.9329 61.7818 33.805 62.143 34.7143 62.143H55.2857C56.195 62.143 57.0671 61.7818 57.7101 61.1388C58.3531 60.4958 58.7143 59.6238 58.7143 58.7144V38.143M48.4286 27.8573L58.7143 38.143M48.4286 27.8573V38.143H58.7143M51.8571 46.7144H38.1428M51.8571 53.5716H38.1428M41.5714 39.8573H38.1428" stroke="#F55151" stroke-width="3" stroke-linecap="round" stroke-linejoin="round"/>
<mask id="path-4-outside-1" maskUnits="userSpaceOnUse" x="63" y="3" width="27" height="25" fill="black">
<rect fill="white" x="63" y="3" width="27" height="25"/>
<path d="M74.738 6.96274L66.268 21.1027C66.0934 21.4052 66.001 21.748 66 22.0973C65.999 22.4465 66.0895 22.7899 66.2624 23.0933C66.4354 23.3967 66.6847 23.6495 66.9857 23.8266C67.2867 24.0037 67.6288 24.0989 67.978 24.1027H84.918C85.2672 24.0989 85.6093 24.0037 85.9103 23.8266C86.2113 23.6495 86.4607 23.3967 86.6336 23.0933C86.8065 22.7899 86.897 22.4465 86.896 22.0973C86.8951 21.748 86.8027 21.4052 86.628 21.1027L78.158 6.96274C77.9797 6.66885 77.7287 6.42586 77.4292 6.25723C77.1297 6.08859 76.7918 6 76.448 6C76.1043 6 75.7663 6.08859 75.4668 6.25723C75.1673 6.42586 74.9163 6.66885 74.738 6.96274Z"/>
</mask>
<path d="M74.738 6.96274L66.268 21.1027C66.0934 21.4052 66.001 21.748 66 22.0973C65.999 22.4465 66.0895 22.7899 66.2624 23.0933C66.4354 23.3967 66.6847 23.6495 66.9857 23.8266C67.2867 24.0037 67.6288 24.0989 67.978 24.1027H84.918C85.2672 24.0989 85.6093 24.0037 85.9103 23.8266C86.2113 23.6495 86.4607 23.3967 86.6336 23.0933C86.8065 22.7899 86.897 22.4465 86.896 22.0973C86.8951 21.748 86.8027 21.4052 86.628 21.1027L78.158 6.96274C77.9797 6.66885 77.7287 6.42586 77.4292 6.25723C77.1297 6.08859 76.7918 6 76.448 6C76.1043 6 75.7663 6.08859 75.4668 6.25723C75.1673 6.42586 74.9163 6.66885 74.738 6.96274Z" fill="#F55151"/>
<path d="M74.738 6.96274L72.173 5.40686C72.1701 5.41161 72.1673 5.41637 72.1644 5.42113L74.738 6.96274ZM66.268 21.1027L63.6944 19.5611C63.6862 19.5749 63.6781 19.5887 63.67 19.6026L66.268 21.1027ZM67.978 24.1027L67.945 27.1026C67.956 27.1027 67.967 27.1027 67.978 27.1027V24.1027ZM84.918 24.1027V27.1027C84.929 27.1027 84.94 27.1027 84.951 27.1026L84.918 24.1027ZM86.628 21.1027L89.226 19.6026C89.218 19.5887 89.2099 19.5749 89.2016 19.5611L86.628 21.1027ZM78.158 6.96274L80.7316 5.42113C80.7288 5.41637 80.7259 5.41161 80.723 5.40686L78.158 6.96274ZM76.448 6V3V6ZM72.1644 5.42113L63.6944 19.5611L68.8416 22.6444L77.3116 8.50436L72.1644 5.42113ZM63.67 19.6026C63.2335 20.3586 63.0025 21.2158 63 22.0889L69 22.1057C68.9995 22.2803 68.9533 22.4517 68.866 22.6029L63.67 19.6026ZM63 22.0889C62.9976 22.9619 63.2238 23.8204 63.6561 24.5789L68.8688 21.6077C68.9552 21.7594 69.0005 21.9311 69 22.1057L63 22.0889ZM63.6561 24.5789C64.0885 25.3374 64.7119 25.9694 65.4643 26.4122L68.5071 21.241C68.6576 21.3296 68.7823 21.456 68.8688 21.6077L63.6561 24.5789ZM65.4643 26.4122C66.2168 26.8549 67.072 27.093 67.945 27.1026L68.011 21.1029C68.1856 21.1048 68.3567 21.1525 68.5071 21.241L65.4643 26.4122ZM67.978 27.1027H84.918V21.1027H67.978V27.1027ZM84.951 27.1026C85.824 27.093 86.6793 26.8549 87.4317 26.4122L84.3889 21.241C84.5394 21.1525 84.7104 21.1048 84.885 21.1029L84.951 27.1026ZM87.4317 26.4122C88.1842 25.9694 88.8076 25.3374 89.2399 24.5789L84.0273 21.6077C84.1137 21.456 84.2384 21.3295 84.3889 21.241L87.4317 26.4122ZM89.2399 24.5789C89.6723 23.8204 89.8985 22.9619 89.896 22.0889L83.896 22.1057C83.8956 21.9311 83.9408 21.7594 84.0273 21.6077L89.2399 24.5789ZM89.896 22.0889C89.8936 21.2158 89.6626 20.3586 89.226 19.6026L84.03 22.6029C83.9427 22.4517 83.8965 22.2803 83.896 22.1057L89.896 22.0889ZM89.2016 19.5611L80.7316 5.42113L75.5844 8.50436L84.0544 22.6444L89.2016 19.5611ZM80.723 5.40686C80.2773 4.67213 79.6498 4.06466 78.901 3.64307L75.9574 8.87139C75.8077 8.78707 75.6822 8.66557 75.593 8.51863L80.723 5.40686ZM78.901 3.64307C78.1522 3.22148 77.3074 3 76.448 3V9C76.2762 9 76.1072 8.9557 75.9574 8.87139L78.901 3.64307ZM76.448 3C75.5887 3 74.7438 3.22148 73.995 3.64307L76.9386 8.87139C76.7889 8.9557 76.6199 9 76.448 9V3ZM73.995 3.64307C73.2462 4.06466 72.6187 4.67213 72.173 5.40686L77.303 8.51863C77.2139 8.66557 77.0884 8.78707 76.9386 8.87139L73.995 3.64307Z" fill="white" mask="url(#path-4-outside-1)"/>
<rect x="75.448" y="13.1028" width="2" height="5" rx="1" fill="white"/>
<rect x="75.448" y="19.1028" width="2" height="2" rx="1" fill="white"/>
</svg>
